
<svg width="380px" height="537px" viewBox="0 0 380 537" version="1.1" xmlns="http://www.w3.org/2000/svg" xmlns:xlink="http://www.w3.org/1999/xlink">
    <g id="Page-1" stroke="none" stroke-width="1" fill="none" fill-rule="evenodd">
        <g id="Tim" transform="translate(-111.000000, -34.000000)" fill-rule="nonzero">
            <path d="M214,546 C214,557.59798 253.398942,567 302,567 C350.601058,567 390,557.59798 390,546 C390,534.40202 350.601058,525 302,525 C278.543858,525 257.231147,527.189994 241.456507,530.759897" id="Path" stroke="#4472C4" stroke-width="7" stroke-linecap="round"></path>
            <path d="M213,483 C213,494.59798 252.398942,504 301,504 C349.601058,504 389,494.59798 389,483" id="Path" stroke="#4472C4" stroke-width="7" stroke-linecap="round"></path>
            <ellipse id="Oval" stroke="#2F528F" stroke-width="6" fill="#D7E0EA" cx="301.5" cy="413.5" rx="69.5" ry="58.5"></ellipse>
            <ellipse id="Oval" fill="#FFFFFF" cx="302" cy="409.5" rx="41" ry="34.5"></ellipse>
            <path d="M140.285001,436.043137 C146.012267,436.5488 157.486716,426.655861 162.3193,405.629389 C168.239269,379.871732 167.194145,334.398605 167.194145,309.005254 C167.194145,262.882822 156.956546,267.100847 144.208926,267.100847 C139.477459,267.100847 123.750091,267.492113 120.088634,276.328638 C113.885314,291.299672 118.714142,313.727351 120.088634,342.787877 C122.242821,388.333293 125.081744,434.700835 140.285001,436.043137 Z" id="Oval" stroke="#2F528F" stroke-width="4" fill="#FFFFFF"></path>
            <path d="M451.927285,438.042919 C457.882433,438.554564 470.136883,429.408376 474.838304,407.269376 C480.418823,380.990703 487.829258,320.012889 487.829258,294.319134 C487.829258,247.651073 469.262172,267.10204 456.007338,267.10204 C451.087611,267.10204 446.710407,261.735856 442.903265,270.676918 C436.453123,285.825059 436.503383,315.206245 437.932565,344.610558 C440.172464,390.694776 436.119107,436.684738 451.927285,438.042919 Z" id="Oval" stroke="#2F528F" stroke-width="4" fill="#FFFFFF" transform="translate(462.490556, 350.572546) scale(-1, 1) translate(-462.490556, -350.572546) "></path>
            <ellipse id="Oval" stroke="#2F528F" stroke-width="4" fill="#FFFFFF" cx="164.5" cy="266.5" rx="51.5" ry="39.5"></ellipse>
            <ellipse id="Oval" stroke="#2F528F" stroke-width="4" fill="#FFFFFF" cx="437.5" cy="266.5" rx="51.5" ry="39.5"></ellipse>
            <ellipse id="Oval" stroke="#2F528F" stroke-width="6" fill="#FFFFFF" cx="302.5" cy="249.5" rx="129.5" ry="140.5"></ellipse>
            <path d="M302.5,58 L302.5,107" id="Line" stroke="#2F528F" stroke-width="6" fill="#2F528F" stroke-linecap="square"></path>
            <circle id="Oval" stroke="#2F5597" fill="#4472C4" cx="302.5" cy="45.5" r="10.5"></circle>
            <ellipse id="Oval" stroke="#333F50" fill="#333F50" cx="303" cy="230" rx="111" ry="102"></ellipse>
            <path d="M341.052012,203 C353.202276,203 360.853477,198.033689 360.853477,186.711852 C360.853477,175.390014 347.699401,164.819034 335.549136,164.819034 C323.398872,164.819034 317.487301,170.605814 317.487301,181.927652 C317.487301,193.249489 328.901747,203 341.052012,203 Z" id="Oval" stroke="#30518D" fill="#4E85E4"></path>
            <path d="M267,203 C279.150264,203 289.839672,192.896621 289.839672,182.40321 C289.839672,171.9098 281.680592,164.819034 269.530327,164.819034 C257.380063,164.819034 244.78706,175.726088 244.78706,186.219498 C244.78706,196.712909 254.849736,203 267,203 Z" id="Oval" stroke="#304976" fill="#4E85E4"></path>
            <ellipse id="Oval" fill="#E78291" cx="225" cy="326.5" rx="12" ry="11.5"></ellipse>
        </g>
    </g>
</svg>